<?xml version="1.0" encoding="UTF-8"?> <svg xmlns="http://www.w3.org/2000/svg" width="448" height="117" viewBox="0 0 448 117" fill="none"><path d="M58.38 6.06003L62.41 0.410034L65.63 6.56003L70.41 1.53003L72.73 8.08002L78.17 3.76004L79.56 10.56L85.54 7.04004L85.97 13.98L92.39 11.33L91.85 18.25L98.57 16.52L97.08 23.3L103.97 22.52L101.55 29.03L108.49 29.22L105.18 35.32L112.03 36.48L107.91 42.06L114.52 44.16L109.66 49.12L115.93 52.11L110.42 56.35L116.21 60.19L110.17 63.61L115.36 68.22L108.91 70.77L113.41 76.06L106.66 77.69L110.39 83.54L103.48 84.22L106.35 90.54L99.41 90.25L101.38 96.91L94.55 95.65L95.57 102.52L88.99 100.32L89.04 107.26L82.83 104.17L81.91 111.06L76.19 107.13L74.33 113.82L69.21 109.13L66.43 115.5L62.01 110.15L58.38 116.06L54.75 110.15L50.33 115.5L47.55 109.13L42.43 113.82L40.57 107.13L34.84 111.06L33.93 104.17L27.72 107.26L27.77 100.32L21.19 102.52L22.2 95.65L15.38 96.91L17.34 90.25L10.41 90.54L13.28 84.22L6.36999 83.54L10.09 77.69L3.34998 76.06L7.84998 70.77L1.39999 68.22L6.58998 63.61L0.549988 60.19L6.32999 56.35L0.829987 52.11L7.08998 49.12L2.23998 44.16L8.84998 42.06L4.72999 36.48L11.57 35.32L8.26998 29.22L15.21 29.03L12.78 22.52L19.68 23.3L18.18 16.52L24.91 18.25L24.37 11.33L30.78 13.98L31.21 7.04004L37.2 10.56L38.59 3.76004L44.02 8.08002L46.35 1.53003L51.13 6.56003L54.34 0.410034L58.38 6.06003Z" fill="#A6CB66"></path><path d="M12.43 58.23C12.43 32.85 33 12.28 58.38 12.28C83.76 12.28 104.33 32.85 104.33 58.23C104.33 83.61 83.76 104.18 58.38 104.18C33 104.18 12.43 83.61 12.43 58.23Z" stroke="white" stroke-width="1.612"></path><path d="M79.98 32.77V83.7H70.32V61.69H46.44V83.7H36.78V32.77H46.44V53.55H70.32V32.77H79.98Z" fill="white"></path><path d="M177.58 26.66V87.23H166.09V61.05H137.69V87.23H126.2V26.66H137.69V51.38H166.09V26.66H177.58Z" fill="#171512"></path><path d="M209.68 73.65H219.89V75.29C219.89 83.57 213.68 87.71 201.25 87.71C192.82 87.71 187.3 86.28 184.7 83.41C182.1 80.54 180.8 74.46 180.8 65.17C180.8 56.92 182.16 51.37 184.88 48.53C187.6 45.69 192.91 44.27 200.81 44.27C208.38 44.27 213.46 45.65 216.03 48.42C218.6 51.19 219.89 56.62 219.89 64.73V67.84H191.18C191.12 68.79 191.09 69.41 191.09 69.7C191.09 73.87 191.73 76.65 193.02 78.04C194.31 79.43 196.87 80.13 200.72 80.13C204.45 80.13 206.87 79.72 208 78.91C209.12 78.1 209.68 76.35 209.68 73.65ZM209.77 61.63L209.73 59.94C209.73 56.57 209.15 54.38 207.98 53.37C206.81 52.36 204.27 51.86 200.37 51.86C196.58 51.86 194.12 52.47 192.98 53.68C191.84 54.89 191.27 57.54 191.27 61.62H209.77V61.63Z" fill="#171512"></path><path d="M223.04 44.81H233.19L232.57 50.76L232.79 50.8C235.21 46.36 239.03 44.14 244.24 44.14C251.69 44.14 255.42 48.84 255.42 58.25V61.22H245.84C245.96 60.07 246.02 59.31 246.02 58.96C246.02 54.43 244.26 52.17 240.74 52.17C235.71 52.17 233.2 55.53 233.2 62.24V87.22H223.05V44.81H223.04Z" fill="#171512"></path><path d="M257.96 44.8101H268.12L267.85 51.33L268.07 51.3701C270.14 46.6701 274.46 44.3101 281.03 44.3101C288.69 44.3101 292.95 46.9301 293.81 52.1601H293.99C295.97 46.9201 300.34 44.3101 307.08 44.3101C316.9 44.3101 321.81 49.2501 321.81 59.1301V87.2201H311.65V61.3501C311.65 55.3501 309.18 52.3401 304.24 52.3401C298.06 52.3401 294.97 55.7001 294.97 62.4101V87.2201H284.8V60.9501C284.8 57.4301 284.34 55.1101 283.4 54.0101C282.47 52.9001 280.49 52.3501 277.48 52.3501C271.24 52.3501 268.12 55.7801 268.12 62.6401V87.2201H257.96V44.8101Z" fill="#171512"></path><path d="M344.63 44.3201C352.82 44.3201 358.19 45.6301 360.74 48.2501C363.28 50.8701 364.56 56.3901 364.56 64.8201C364.56 74.2301 363.32 80.4001 360.83 83.3201C358.35 86.2501 353.11 87.7101 345.12 87.7101C336.45 87.7101 330.84 86.3501 328.28 83.6301C325.72 80.9101 324.44 74.9201 324.44 65.6601C324.44 56.7601 325.7 50.9701 328.21 48.3101C330.73 45.6501 336.2 44.3201 344.63 44.3201ZM344.54 52.3501C340.31 52.3501 337.62 53.1101 336.46 54.6401C335.31 56.1601 334.73 59.7201 334.73 65.3101C334.73 71.7001 335.28 75.6901 336.37 77.2901C337.46 78.8901 340.2 79.6901 344.58 79.6901C348.81 79.6901 351.48 78.8501 352.59 77.1601C353.7 75.4701 354.25 71.4201 354.25 65.0001C354.25 59.5901 353.67 56.1301 352.52 54.6201C351.38 53.1101 348.71 52.3501 344.54 52.3501Z" fill="#171512"></path><path d="M406.45 26.66V87.23H396.56L396.91 80.4L396.73 80.36C394.75 85.3 390.43 87.77 383.77 87.77C377.05 87.77 372.61 86.24 370.43 83.18C368.26 80.12 367.17 73.9 367.17 64.52C367.17 56.95 368.34 51.69 370.68 48.75C373.02 45.81 377.17 44.33 383.15 44.33C390.07 44.33 394.39 46.52 396.11 50.9L396.29 50.86V26.68H406.45V26.66ZM386.53 52.35C382.74 52.35 380.29 53.16 379.16 54.77C378.04 56.38 377.47 59.85 377.47 65.18C377.47 71.33 378.03 75.3 379.16 77.07C380.28 78.84 382.8 79.73 386.7 79.73C390.78 79.73 393.39 78.86 394.53 77.11C395.67 75.36 396.24 71.34 396.24 65.04C396.24 59.83 395.61 56.42 394.35 54.79C393.1 53.17 390.49 52.35 386.53 52.35Z" fill="#171512"></path><path d="M446.26 56.48H436.32C436.26 56.12 436.22 55.86 436.19 55.68C435.98 53.64 435.4 52.37 434.44 51.86C433.48 51.36 431.15 51.11 427.45 51.11C422.15 51.11 419.51 52.83 419.51 56.26C419.51 58.6 419.98 59.99 420.91 60.43C421.84 60.87 425 61.23 430.38 61.49C437.63 61.85 442.35 62.81 444.54 64.38C446.73 65.95 447.82 69.16 447.82 74.01C447.82 79.19 446.36 82.77 443.45 84.77C440.54 86.77 435.31 87.77 427.76 87.77C420.51 87.77 415.56 86.87 412.89 85.06C410.23 83.26 408.9 79.88 408.9 74.94V73.87H419.46C419.31 74.46 419.22 74.94 419.19 75.29C418.78 79.05 421.68 80.93 427.89 80.93C434.31 80.93 437.52 79.07 437.52 75.34C437.52 71.76 435.51 69.97 431.48 69.97C422.4 69.97 416.42 69.11 413.53 67.4C410.65 65.68 409.2 62.12 409.2 56.71C409.2 51.86 410.51 48.58 413.15 46.86C415.78 45.14 420.84 44.29 428.33 44.29C435.4 44.29 440.16 45.12 442.6 46.77C445.04 48.42 446.26 51.66 446.26 56.48Z" fill="#171512"></path></svg> 